<?xml version="1.0" encoding="utf-8"?>
<!-- Generator: Adobe Illustrator 22.0.1, SVG Export Plug-In . SVG Version: 6.00 Build 0)  -->
<svg version="1.1" id="レイヤー_1" xmlns="http://www.w3.org/2000/svg" xmlns:xlink="http://www.w3.org/1999/xlink" x="0px"
	 y="0px" viewBox="0 0 180 121" style="enable-background:new 0 0 180 121;" xml:space="preserve">
<style type="text/css">
	.st0{fill:#FFFFFF;}
</style>
<g>
	<path class="st0" d="M167.2,25.8C167.1,25.8,167.1,25.8,167.2,25.8c0.4-5.2-0.7-9.4-3.4-12.6c-3.8-4.7-9.6-5.7-11.2-5.9
		c-3-7-15.4-5.7-16.8-5.5c-18.4-4.2-23,0.2-24,1.6c-8.2,0.2-13.9,8.2-14.7,9.4c-2.6,1.5-6.8,6.8-8.4,8.9c-0.9-2.2-3.3-6.9-7.6-9.4
		c0,0,0,0,0,0C80.3,10.8,74.6,1,62.8,2.2c-2-0.7-22-7.5-37.4,8.8c-2.1,0.4-17.6,3.6-16.6,23.2c-0.9,1.2-5.5,7.7-4.5,15.2
		C4.9,54,7.5,58,12.1,61.3c0.3,1.4,1.8,8.3,7.6,12.6c3.9,2.9,8.9,3.9,14.9,3.1c1.2,1.4,6.4,7,15.5,7c4,0,8.8-1.1,14.5-4.1
		c1.5,0.1,10.7,0.8,16.5-4.2c2.9-2.5,4.4-6,4.6-10.4c0.8-0.5,3.1-1.6,4.7-2.5c0,0,0,0,0,0c0,0,0.5,0.1,1.2,0.3
		c-1.3,5.5,1.4,10.3,7.2,13c5.3,2.5,12,1.3,13.6,1c11.7,11,23.5,3.5,25.2,2.3c7.4,0.9,13.1-0.3,16.9-3.7c4.2-3.6,4.8-8.5,4.9-10
		c6.1-2.4,10-5.6,11.5-9.5c1.2-3.2,0.5-5.9,0.1-6.9c3.2-4,4.5-8.1,3.8-12.2C173.8,31,168.6,26.9,167.2,25.8z M163,14.2
		c2.3,2.8,3.3,6.5,3.1,11c-13.2-4.7-21.7-11.9-23.7-13.7c0.5-0.4,1-0.7,1.3-1c0.4-0.3,0.8-0.6,1-0.7c1.6-0.9,5.3-1.2,7.2-1.3
		c0.1,0.1,0.3,0.2,0.4,0.2C152.3,8.8,159,9.3,163,14.2z M164.6,45c0,0.2,0,0.4,0,0.6c0,2.5-1.1,4.9-3.1,6.8
		c-2.6,2.5-6.5,3.9-10.6,3.9c-4.5-5.9,1.1-12.5,2.7-14.2c0,0,0.1,0,0.2,0c0.2-0.1,3.5-1.4,6.1-4.2c0.8,0.3,4.2,2.3,4.7,6.8
		C164.5,44.8,164.5,44.9,164.6,45z M151.3,66.5c-0.3,0.2-0.5,0.3-0.8,0.5c-2.8,1.7-5.5,1.3-7.2,0.7c-0.9-0.4-4.2-2.1-6.3-3.2
		c3.6-5.8,11-6.9,12.9-7.1c0.1,0.1,0.2,0.2,0.4,0.2c0.2,0,0.4,0,0.6,0c2.2,0,4.4-0.4,6.3-1.1C159.2,61.2,155.6,63.9,151.3,66.5z
		 M133.3,73.7c-8,0-10.9-2.7-12.4-4.1l-0.3-0.3c-1.4-1.2-3.3-4-4.2-5.3c8-3.5,17.7,0.5,19.2,1.2c0.1,0.1,0.1,0.1,0.2,0.2
		c0.3,0.1,5.8,3,7.1,3.5c0.8,0.3,1.9,0.5,3,0.6C143.7,73.5,141.5,73.7,133.3,73.7z M116.5,72.2c-3.4-0.3-6.9-1-10-2.2
		c-2-0.8-4.7-2.4-6-5.6c-1-2.7-0.8-6.9,1.2-9.5c9.8,1.9,13.1,9,13.1,9.1c0.1,0.1,3,4.5,4.9,6.2l0.3,0.3c0.3,0.3,0.7,0.7,1.2,1.1
		C119.4,72.1,117.8,72.3,116.5,72.2z M91.6,61.8c0.6-0.7,1.5-2.1,2.4-4.4c0.5,1.3,1.3,3.2,2.8,4.8C94.4,62.3,92.6,62,91.6,61.8z
		 M96.3,27.3c0.6-0.3,1.7-0.9,2.8-1.8c1.3,1,1.7,1.7,1.7,1.7c0,0.1,0.1,0.2,0.2,0.3c4.3,9.1-3.9,16.7-4.3,17
		c-0.1,0.1-0.1,0.2-0.2,0.3c-0.7,0.6-1.3,1-1.7,1.3c-0.9-2.2-2.2-3.8-3-4.6C94.9,38,96.5,32,96.3,27.3z M106.3,16
		c1.6-0.5,9.5-2.9,14.4,2.8c-4.1,7.5-16.9,7.5-18.9,7.4c-0.3-0.3-0.8-0.9-1.7-1.6C102.6,22.4,105.3,19.2,106.3,16z M122.9,11.1
		c4.1,2.6,7.6,3.5,10.5,3.5c1.2,0,2.4-0.2,3.4-0.4c-0.1,1.3,0,2.4,0.1,3.1c-7.2,4.6-14.7,0.9-15.1,0.8c-1.4-1.6-3-2.7-4.7-3.3
		C118.7,13.9,121,12.7,122.9,11.1z M141.3,12.2c1,0.9,5.1,4.5,11.8,8.3c-2.4,1.6-3.5,3.4-4,4.4c-4.1-0.2-7.1-1.2-9-3.2
		c-1.6-1.6-1.8-3.4-1.8-4c0-0.1,0-0.2,0-0.2c0,0,0-0.1,0-0.1c-0.1-0.4-0.3-1.9-0.1-3.7C139.3,13.3,140.4,12.8,141.3,12.2z
		 M152.6,41.5c-1.8,2-7.1,8.6-3.4,14.8c-2.8,0.3-9.8,1.7-13.4,7.6c-1.6-0.7-6.5-2.6-12.1-2.6c-2.6,0-5.4,0.5-8.1,1.6
		c-1-1.9-4.8-7.6-13.7-9.3c0.1-1.2-0.4-4-4-8.7c1.8-1.8,8-9.1,4.5-17.5c3.6,0.1,15.1-0.5,19.3-8c2,0.9,8.6,3.3,15.4-0.7
		c0.2,1,0.7,2.5,2,4c2,2.1,5.2,3.3,9.4,3.6C147.5,28.9,145.3,36.6,152.6,41.5z M94.7,55.5c0.2-0.5,0.3-1,0.5-1.6
		c0.7-2.6,0.6-4.8,0-6.7c0.4-0.2,1.1-0.6,1.8-1.3c4.2,5.5,3.6,8.1,3.6,8.1c0,0,0,0.1,0,0.1c-1.8,2.4-2.4,5.6-2,8.4
		C95.7,60,94.9,56.3,94.7,55.5z M153.9,40.7C153.9,40.7,153.9,40.7,153.9,40.7c-7.9-4.7-4.9-12.6-4.1-14.4c0.1-0.1,0.1-0.1,0.2-0.3
		c0,0,1-2.6,4.3-4.7c1.5,0.8,3,1.6,4.7,2.4c2.2,3.7,2.8,7,1.8,10C159.5,37.8,155.3,40.1,153.9,40.7z M151.3,7.3
		c-1.8,0.1-5.5,0.4-7.2,1.4c-0.4,0.1-0.7,0.4-1.2,0.8c-2.9,2.3-8.9,7-19.1,0.6c0.3-0.3,0.6-0.7,0.9-1c2.2-3.3,8.9-5.6,10.9-6
		c0.1,0,0.2,0,0.2,0.1c0,0,0.1,0,0.2,0C136.2,3.2,148,1.8,151.3,7.3z M132.8,2.6c-3,1-7.3,3.1-9.2,5.7c-2.3,3.3-8.2,5.7-8.6,5.8
		c-3.4-0.7-6.8,0-8.4,0.5c1.2-4.6,4.8-8.7,5.8-9.8c0.2-0.1,0.4-0.2,0.5-0.4C112.9,4.4,115.4-0.8,132.8,2.6z M110.6,4.9
		c-1.6,2-4.5,5.9-5.3,10.1c0,0.1,0,0.1,0,0.2c-0.1,0.1-0.1,0.2-0.1,0.3c-1.4,4.8-7.1,9.5-9,10.5c0-0.4-0.1-0.8-0.2-1.1
		c-1-4.7,1.3-9.6,1.9-10.9c0,0,0,0,0.1,0c0.1,0,0.1-0.1,0.2-0.2C98.3,13.7,103.4,6,110.6,4.9z M95.8,15.8c-0.9,2.3-1.7,5.8-1,9.3
		c1.1,5-1.3,14.7-6,17C86,33,88.1,25.9,88.9,23.7c0.1,0,0.2-0.1,0.3-0.2C89.3,23.4,92.8,18.6,95.8,15.8z M77.6,56.6
		c-2.2-6.5,4.7-15.1,4.8-15.2c0,0,0,0,0,0c0,0,0.1,0,0.1-0.1c0-0.1,1.7-2.8,3.9-5.5c0.2,2.2,0.7,4.6,1.5,7.2c0,0,0,0.1,0,0.1
		c0,0,0,0,0,0C88.8,53.9,79.8,56.2,77.6,56.6z M83.6,62.7c-0.1,0.1-0.2,0.2-0.3,0.3c0,0,0,0.1,0,0.1c-0.2,0.2-0.4,0.5-0.7,0.7
		c-3.3,2.8-6.1,4.4-8.5,4.8c0,0-0.1-0.1-0.1-0.1c-0.3-0.1-0.6,0-0.8,0.2c-1.1,0.1-2.1-0.1-3-0.6c-0.2-0.2-4.3-2.4-6.2-3.3
		C68.7,59,77.2,58,77.3,58c0,0,0.1,0,0.1,0c0.7-0.1,3.2-0.6,5.7-2.2C83.6,56.6,85.2,60.1,83.6,62.7z M66.3,74.2
		c-4.4,0.6-12.3,0.2-14.9-0.4l-0.6-0.1c-2.3-0.6-4.7-1.2-5.1-2.6c-0.5-1.5-1.7-4.2-2.8-5.6c7-5.1,17.9-0.8,19.6-0.1
		c0.1,0.1,0.2,0.2,0.3,0.2c0.3,0.1,2.6,1.2,6.6,3.5c0.9,0.5,1.9,0.7,2.9,0.8C71.4,71.3,69.3,73.8,66.3,74.2z M27.6,67.9
		c-1.3-1.3-1.8-2.7-1.9-4.1c0,0,0.1-0.1,0.1-0.1c0.1-0.2,0-0.4-0.1-0.5c0.1-2.3,1.3-4.2,1.9-5c8-0.6,12.7,5.7,13.6,7.2
		c0,0.1,0.1,0.2,0.2,0.3c0.1,0.1,0.2,0.2,0.3,0.3c0.7,0.8,2.3,3.7,2.8,5.5c0.1,0.5,0.4,0.9,0.7,1.2C40.6,73.7,31.8,72.2,27.6,67.9z
		 M15.4,46.6c0.5-1.9,4.5-2.6,6-2.7c8.3,3.8,6.1,11.4,5.5,13.1c0,0-0.1,0.1-0.1,0.1c0,0-1.9,2.4-2.3,5.5
		C16.6,59.6,13.5,54.3,15.4,46.6z M49.3,11.4c1.3,0.8,5,3,9.9,3c1.1,0,2.3-0.1,3.5-0.4c0,0.9,0,2.3,0.3,3.6
		c-6.1,3.1-14.1,0.9-14.6,0.8c-0.6-0.8-2.2-2.7-4.6-3.6C46,13.9,47.8,12.7,49.3,11.4z M67.8,12.5c0.4,1.5,2,5.5,7.3,10.4
		c-0.3,3.2-0.3,5-0.2,6.1c-9.1-3.5-10.3-9.8-10.5-10.9c0-0.1,0-0.1,0-0.2c-0.4-1.6-0.4-3.4-0.3-4.2C65.5,13.3,66.7,12.9,67.8,12.5z
		 M86.2,33.9c-2.1,2.5-3.9,5.3-4.6,6.3c-4.7-2.2-5.3-9.3-5.4-10.2c0-0.1,0-0.2,0-0.3c0,0-0.3-1.1,0-5.8c2.5,2.1,5.8,4.3,10,6.6
		C86.2,31.6,86.2,32.7,86.2,33.9z M76.3,56.8c-2.3,0.4-9.3,1.9-13.5,7.3c-2.4-1-13.3-5.1-20.7,0.3c-1.3-1.9-5.9-7.6-13.6-7.6
		c-0.1,0-0.2,0-0.3,0.1c0.8-2.5,2.1-9.7-5.5-13.7c2.5-1.7,8.4-6.9,5.4-16.4c3.8,0.3,16.9,0.8,20.4-7c2,0.5,9,1.9,14.8-0.8
		c0.5,2.2,2.7,8.1,11.8,11.3c0.2,1.8,1,8.4,5.8,10.9C79.2,43.4,74.4,50.7,76.3,56.8z M41.5,15.6c3.2,0.1,5.4,2.8,5.9,3.6
		c-3.5,8.2-19.8,6.2-20,6.2c-0.1,0-0.2,0-0.3,0c-0.3-0.1-0.7-0.2-1.3-0.2c0.7-3.9,0.5-7,0.2-9.2c0-0.6-0.1-1.1-0.1-1.6
		c3.9,1.4,7.3,2,10.3,2C38.2,16.3,39.9,16,41.5,15.6z M25.4,26.9c0-0.2,0.1-0.4,0.1-0.6c0.6,0,1.1,0.1,1.3,0.2
		c3.9,11.2-5.2,15.9-5.6,16.1c0,0,0,0,0,0c-0.9,0.1-3.7,0.4-5.5,1.6c-0.7-1.7-1.1-3-1.3-4.2C16.2,38.6,24,32.4,25.4,26.9z
		 M87.9,22.9c-0.3,0.9-1.1,3.1-1.5,6.2C72.3,21.5,69.5,13.9,69,12c3.7-1.4,5.5-2,11,1.1c0,0.1,0.1,0.1,0.1,0.2
		c0.1,0.1,0.2,0.2,0.3,0.3C84.8,16.1,87.3,21.4,87.9,22.9z M78.6,10.9c-4.6-2.2-6.8-1.3-10.2,0c-1.3,0.5-2.9,1.1-4.8,1.6
		c0,0-0.1,0-0.1,0c-0.1,0-0.3,0.1-0.4,0.1C57,14.2,52,11.6,50.3,10.5c0.9-0.8,1.6-1.6,2.2-2.2c0.7-0.7,1.2-1.3,1.6-1.6
		c2.1-1.4,6.7-2.6,8.3-3c0.1,0,0.1,0.1,0.1,0.1c0.1,0,0.2,0,0.3,0C71.3,2.8,76.3,7.8,78.6,10.9z M60.1,2.9C58,3.5,55,4.4,53.3,5.6
		c-0.5,0.4-1.1,1-1.8,1.8C50.8,8.2,50,9.1,48.9,10c-0.1,0-0.2,0.1-0.2,0.2c0,0,0,0,0,0c-4,3.6-10.8,7.2-22.8,2.7
		c0-0.4,0.2-0.8,0.4-1c0-0.1,0.1-0.1,0.1-0.2C38.9-1.3,54.3,1.2,60.1,2.9z M24.7,12.4c-0.2,0.9-0.1,2.1,0,3.6
		c0.2,2.5,0.5,6-0.6,10.5c-1.3,5-8.7,11-10.5,12.4c-3.3-2.5-3.5-4.5-3.5-4.6C9.1,17.2,20.9,13.2,24.7,12.4z M5.6,49.2
		C4.8,43.4,7.7,38,9.2,35.8c0.5,1.1,1.6,2.7,4,4.5c0,0,0,0,0,0c0.3,1.6,0.8,3,1.5,4.8c-0.3,0.4-0.5,0.8-0.6,1.2
		c-1.9,7.6,1,12.2,5.2,15.1c-1.8,0-4.3-0.2-6.1-0.9c0,0-0.1-0.1-0.1-0.1C8.7,57.2,6.2,53.5,5.6,49.2z M20.5,72.8
		c-4.5-3.4-6.3-8.6-6.9-10.9c1.9,0.6,4.2,0.7,5.9,0.7c1,0,1.7,0,1.9,0c1,0.5,2.1,1,3.1,1.3c0.1,1.6,0.7,3.3,2.2,4.9
		c3.2,3.2,8.5,5,13.2,5.4c-1.2,0.6-3,1.3-4.8,1.5c-0.1,0-0.2-0.1-0.3-0.1C29.1,76.5,24.2,75.6,20.5,72.8z M36.2,76.8
		c3.3-0.6,6-2.4,6.2-2.5c0,0,0,0,0,0c1.7,0,3.1-0.2,4.1-0.6c1.1,0.6,2.6,1,4.1,1.3l0.5,0.1c1.8,0.5,5.7,0.8,9.5,0.8
		c2.1,0,4.2-0.1,5.8-0.5c-0.6,1.2-1.5,2.7-2.4,3.2C48.1,87.4,38.9,79.6,36.2,76.8z M80.1,74.7c-4.5,3.9-11.3,4-14.3,3.9
		c1.1-1.2,1.9-2.9,2.1-3.5c3.3-1.1,5.5-4.2,6.1-5.3c2.6-0.5,5.7-2.2,9.3-5c0.2-0.2,0.4-0.3,0.5-0.5c0.1,0.2,0.2,0.5,0.3,0.9
		C84.1,69.2,82.7,72.4,80.1,74.7z M85.1,64.1c-0.1-0.3-0.3-0.6-0.4-0.9c1.6-2.8,0.5-6.4-0.5-8.2c2.8-2.1,5.3-5.7,4.9-11.6
		c0.7-0.3,1.3-0.7,1.9-1.1c0.7,0.7,2.2,2.3,3,4.7c0,0,0,0,0,0.1c0,0,0,0,0,0c0.6,1.8,0.8,3.9,0.1,6.5c-1.5,5.2-3.4,7.5-3.8,7.9
		C88.9,62.2,86.2,63.6,85.1,64.1z M99.4,75c-2.5-1.3-8.1-4.7-6.5-11.7c0.9,0.1,1.9,0.2,3.1,0.2c0.6,0,1.2-0.1,2,0c0,0,0.1,0,0.1,0
		c0.3,0.3,0.7,0.5,1,0.7c0.1,0.2,0.1,0.5,0.2,0.7c1.1,2.9,3.5,5.1,6.7,6.3s6.8,2,10.3,2.3c0.1,0,0.2,0,0.3,0c-1.8,2-4,2.3-4,2.3
		c-0.1,0-0.2,0.1-0.3,0.1C111.2,76.1,104.4,77.4,99.4,75z M113.9,76.8c1.2-0.4,3.1-1.3,4.4-3.4c1.3-0.1,2.7-0.4,4.3-0.9
		c2.1,1.3,5.3,2.4,10.6,2.4c2.6,0,4.6,0,6.3-0.2c-0.4,1-1.2,2.6-2.4,3.4c-0.2,0.1-0.3,0.3-0.3,0.4C135,80,124.7,86.3,113.9,76.8z
		 M153.7,75c-3.4,2.9-8.3,4-14.8,3.4c1.3-1.3,1.9-3.1,2.1-3.8c3.1-0.5,4.7-1.9,6.4-5.2c1.2-0.1,2.4-0.5,3.8-1.3
		c0.2-0.2,0.5-0.3,0.8-0.5c1.7-1,3.9-2.4,5.4-4.2c0.3,0.4,0.6,1,0.8,2c0,0,0,0,0,0c0,0,0,0,0,0.1C158.2,65.5,158.1,71.2,153.7,75z
		 M169.8,56c-1.3,3.4-4.9,6.3-10.4,8.6c-0.3-1.2-0.8-2-1.2-2.3c1-1.7,1.3-3.8,0.2-6.3c1.5-0.7,2.8-1.5,3.9-2.6
		c2.3-2.2,3.5-4.9,3.5-7.7c1.4,0.8,3.4,2.2,3.9,3.8c0,0,0,0.1,0.1,0.1c0,0,0,0.1,0,0.1C169.8,49.8,171.2,52.6,169.8,56z M170.5,48.2
		c-1.2-2-3.8-3.4-4.8-3.9c-0.6-4.5-3.9-6.8-5.1-7.4c0.6-0.8,1.1-1.8,1.5-2.8c0.9-2.9,0.6-6.1-1.1-9.5c1.6,0.7,3.3,1.4,5.1,2
		c0,0.1,0.1,0.2,0.2,0.2c0,0.1,6.4,4.2,7.4,10.7C174.3,41.1,173.1,44.6,170.5,48.2z"/>
	<path class="st0" d="M6.1,105.6c1.7-0.7,2.8-2,2.6-3.5c0-1.2-0.4-2.1-1.2-2.8c-0.9-0.8-2.2-1.2-4.2-1.2c-1.3,0-2.5,0.1-3.4,0.3V114
		c0.7,0.1,1.7,0.2,3,0.2c2.4,0,4.1-0.5,5.2-1.5c0.8-0.7,1.3-1.7,1.3-3.1C9.4,107.2,7.6,106,6.1,105.6z M1.7,99.5
		c0.3,0,0.9-0.1,1.8-0.1c2.2,0,3.6,0.8,3.6,2.7c0,1.7-1.4,2.9-3.5,2.9v-0.1H1.7V99.5z M3.4,112.9c-0.7,0-1.3,0-1.7-0.1v-6.5h1.7
		c2.1,0,4.2,0.9,4.2,3.3C7.6,112,5.6,112.9,3.4,112.9z"/>
	<path class="st0" d="M16.1,102.4c-3,0-5.4,2.2-5.4,6.1c0,3.7,2.3,5.9,5.2,5.9c2.6,0,5.4-1.8,5.4-6.1
		C21.3,104.8,19.2,102.4,16.1,102.4z M16,113c-2.1,0-3.5-2.1-3.5-4.6c0-2.2,1-4.6,3.5-4.6s3.5,2.6,3.5,4.6
		C19.5,110.9,18.1,113,16,113z"/>
	<path class="st0" d="M31.3,111.1v-8.4h-1.7v7.1c0,2-1.6,3.1-3,3.1c-1.9,0-2.6-1.6-2.6-3.8v-6.4h-1.7v6.8c0,3.9,2.1,4.9,3.8,4.9
		c2,0,3.2-1.2,3.7-2.1h0.1l0.1,1.8h1.6c0-0.8-0.1-1.8-0.1-3H31.3z"/>
	<rect x="34.5" y="97.4" class="st0" width="1.7" height="16.8"/>
	<path class="st0" d="M47,106.8c0-2.3-0.9-4.6-4.1-4.6c-1.3,0-2.6,0.4-3.5,1l0.4,1.2c0.8-0.5,1.8-0.8,2.8-0.8c2.6,0,2.6,2.2,2.6,3.2
		c-4.2,0-6.6,1.5-6.6,4.2c0,1.7,1.1,3.3,3.3,3.3c1.6,0,2.8-0.8,3.4-1.7h0.1l0.2,1.5h1.6c-0.2-0.8-0.2-1.8-0.2-2.7V106.8z
		 M45.3,110.3c0,1.4-1.2,2.7-2.9,2.7c-1.1,0-2-0.6-2-2.1c0-2.4,2.7-2.7,4.9-2.7V110.3z"/>
	<path class="st0" d="M54.8,102.5c-1.8,0-3.1,1-3.7,2.1l-0.1-1.9h-1.6c0.1,1,0.1,1.8,0.1,3v8.5h1.7v-7c0-2,1.5-3.3,3-3.3
		c2,0,2.7,1.6,2.7,3.5v6.8h1.7h0.1v-7C58.7,103.4,56.2,102.5,54.8,102.5z"/>
	<path class="st0" d="M69.6,104.6c-0.5-1-1.5-2-3.5-2c-2.5,0-5,2.1-5,6.1c0,3.2,2,5.6,4.7,5.6c1.7,0,2.9-0.9,3.5-2v1.4
		c0,3-1.5,4.1-3.6,4.1c-1.4,0-2.5-0.5-3.2-0.9l-0.5,1.4c0.9,0.6,2.3,0.9,3.6,0.9c5.5,0,5.5-4.6,5.5-6.6v-6.7c0-1.4,0-2.2,0.1-3h-1.5
		L69.6,104.6z M69.4,109.3c0,2.4-1.8,3.4-3.1,3.4c-2.2,0-3.4-1.9-3.4-4.3c0-2.8,1.4-4.6,3.4-4.6c1.6,0,3,1.3,3,3.3h0.1V109.3z"/>
	<path class="st0" d="M71.2,102.9v-0.2C71.2,102.8,71.2,102.8,71.2,102.9L71.2,102.9z"/>
	<path class="st0" d="M78.7,102.4c-3.1,0-5.1,2.6-5.1,6.2c0,3.4,2,5.8,5.3,5.8c1.8,0,2.9-0.4,3.6-0.7l-0.3-1.3
		c-0.7,0.3-1.6,0.6-3,0.6c-2.1,0-3.9-1.2-3.9-4.4h7.8c0-0.3,0-0.6,0-1C83.1,105.6,82.2,102.4,78.7,102.4z M75.3,107.3
		c0.2-1.6,1.1-3.6,3.2-3.6c2.3,0,2.9,2,2.9,3.6H75.3z"/>
	<path class="st0" d="M87.2,105L87.2,105l-0.2-2.2h-1.5c0.1,1.1,0.1,2.2,0.1,3.4v8h1.7V108c0-1.9,1-3.8,2.9-3.8c0.2,0,0.4,0,0.6,0
		v-1.6c-0.2-0.1-0.3-0.1-0.5-0.1C88.9,102.5,87.7,103.6,87.2,105z"/>
	<path class="st0" d="M94.1,98.3c-0.7,0-1.2,0.6-1.2,1.2c0,0.7,0.4,1.2,1.1,1.2s1.2-0.5,1.2-1.2S94.8,98.3,94.1,98.3z"/>
	<rect x="93.2" y="102.8" class="st0" width="1.7" height="11.4"/>
	<path class="st0" d="M102.2,102.4c-3.1,0-5.1,2.6-5.1,6.2c0,3.4,2,5.8,5.3,5.8c1.8,0,3-0.4,3.6-0.7l-0.3-1.3
		c-0.7,0.3-1.6,0.6-3,0.6c-2.1,0-3.9-1.2-3.9-4.4h7.8c0-0.3,0-0.6,0-1C106.6,105.6,105.7,102.4,102.2,102.4z M98.8,107.3
		c0.2-1.6,1.1-3.6,3.2-3.6c2.3,0,2.9,2,2.9,3.6H98.8z"/>
	<path class="st0" d="M133.3,97.8c-2.4,0-4,1.3-5.1,3.2h-0.1c-0.7-1.9-2.3-3.2-4.4-3.2c-2.6,0-4,1.3-4.9,2.9h-0.1l-0.1-2.6h-2.1
		c0,1.3,0.1,2.5,0.1,4.1v11.9h2.4v-9.8c0-2.5,1.8-4.6,3.9-4.6c2.3,0,3.4,1.9,3.4,4.5v9.9h2.4V104c0-2.4,1.8-4.3,3.8-4.3
		c2.4,0,3.5,2,3.5,5.1v9.3h2.4v-9.5C138.4,99.1,135.3,97.8,133.3,97.8z"/>
	<path class="st0" d="M155,98.1h-2.4v10c0,2.8-2.3,4.3-4.2,4.3c-2.7,0-3.6-2.2-3.6-5.3v-9h-2.4v9.5c0,5.5,2.9,6.9,5.3,6.9
		c2.7,0,4.4-1.6,5.1-2.9h0.1l0.1,2.5h2.2c-0.1-1.3-0.2-2.7-0.2-4.3V98.1z"/>
	<path class="st0" d="M169.8,100.3L169.8,100.3c-0.8-1.3-2.3-2.8-5-2.8c-3.4,0-6.9,2.9-6.9,8.5c0,4.5,2.8,7.9,6.6,7.9
		c2.5,0,4.2-1.2,5-2.7h0.1v1.9c0,4.2-2.2,5.8-5.1,5.8c-1.9,0-3.5-0.6-4.5-1.2l-0.6,1.9c1.2,0.9,3.2,1.3,5,1.3c7.5,0,7.6-6.4,7.6-9.2
		v-9.3c0-2,0-3.3,0.1-4.4v-0.1h-2.2L169.8,100.3z M169.5,107.4c0,3.3-2.5,4.7-4.3,4.7c-3.2,0-4.8-2.7-4.8-6.1c0-3.9,2-6.4,4.8-6.4
		c2.3,0,4.3,1.8,4.3,4.6V107.4z"/>
	<rect x="177.2" y="98.1" class="st0" width="2.4" height="16"/>
	<path class="st0" d="M178.4,95.2c0.9,0,1.6-0.6,1.6-1.7c0-0.9-0.6-1.6-1.6-1.6c-0.9,0-1.6,0.7-1.6,1.6
		C176.8,94.5,177.5,95.2,178.4,95.2z"/>
</g>
</svg>
